<mxfile host="Electron" modified="2024-03-06T16:06:23.210Z" agent="Mozilla/5.0 (Windows NT 10.0; Win64; x64) AppleWebKit/537.36 (KHTML, like Gecko) draw.io/22.0.0 Chrome/114.0.5735.289 Electron/25.8.3 Safari/537.36" etag="77-sAT3I011BsLnlRuzP" version="22.0.0" type="device">
  <diagram name="Page-1" id="2YBvvXClWsGukQMizWep">
    <mxGraphModel dx="1219" dy="713" grid="1" gridSize="10" guides="1" tooltips="1" connect="1" arrows="1" fold="1" page="1" pageScale="1" pageWidth="850" pageHeight="1100" math="0" shadow="0">
      <root>
        <mxCell id="0" />
        <mxCell id="1" parent="0" />
        <mxCell id="FX6HBmnvnHPQ0UN5K0Ce-1" value="utenteConnesso:Utente" style="shape=umlActor;verticalLabelPosition=top;verticalAlign=bottom;outlineConnect=0;labelPosition=center;align=center;fontSize=13;" vertex="1" parent="1">
          <mxGeometry x="80" y="60" width="20" height="40" as="geometry" />
        </mxCell>
        <mxCell id="FX6HBmnvnHPQ0UN5K0Ce-2" value="HomePage" style="shape=umlLifeline;perimeter=lifelinePerimeter;container=1;dropTarget=0;collapsible=0;recursiveResize=0;outlineConnect=0;portConstraint=eastwest;newEdgeStyle={&quot;curved&quot;:0,&quot;rounded&quot;:0};participant=umlBoundary;verticalAlign=bottom;labelPosition=center;verticalLabelPosition=top;align=center;fontSize=13;" vertex="1" parent="1">
          <mxGeometry x="270" y="60" width="50" height="460" as="geometry" />
        </mxCell>
        <mxCell id="FX6HBmnvnHPQ0UN5K0Ce-4" value="" style="html=1;points=[[0,0,0,0,5],[0,1,0,0,-5],[1,0,0,0,5],[1,1,0,0,-5]];perimeter=orthogonalPerimeter;outlineConnect=0;targetShapes=umlLifeline;portConstraint=eastwest;newEdgeStyle={&quot;curved&quot;:0,&quot;rounded&quot;:0};" vertex="1" parent="FX6HBmnvnHPQ0UN5K0Ce-2">
          <mxGeometry x="20" y="60" width="10" height="20" as="geometry" />
        </mxCell>
        <mxCell id="FX6HBmnvnHPQ0UN5K0Ce-16" value="" style="html=1;points=[[0,0,0,0,5],[0,1,0,0,-5],[1,0,0,0,5],[1,1,0,0,-5]];perimeter=orthogonalPerimeter;outlineConnect=0;targetShapes=umlLifeline;portConstraint=eastwest;newEdgeStyle={&quot;curved&quot;:0,&quot;rounded&quot;:0};" vertex="1" parent="FX6HBmnvnHPQ0UN5K0Ce-2">
          <mxGeometry x="20" y="158" width="10" height="22" as="geometry" />
        </mxCell>
        <mxCell id="FX6HBmnvnHPQ0UN5K0Ce-3" value="" style="html=1;points=[[0,0,0,0,5],[0,1,0,0,-5],[1,0,0,0,5],[1,1,0,0,-5]];perimeter=orthogonalPerimeter;outlineConnect=0;targetShapes=umlLifeline;portConstraint=eastwest;newEdgeStyle={&quot;curved&quot;:0,&quot;rounded&quot;:0};" vertex="1" parent="1">
          <mxGeometry x="85" y="120" width="10" height="440" as="geometry" />
        </mxCell>
        <mxCell id="FX6HBmnvnHPQ0UN5K0Ce-5" value="seleziona &quot;Visualizza Notifiche&quot;" style="verticalAlign=bottom;startArrow=none;endArrow=block;startSize=8;curved=0;rounded=0;entryX=0;entryY=0;entryDx=0;entryDy=5;fontSize=13;startFill=0;" edge="1" target="FX6HBmnvnHPQ0UN5K0Ce-4" parent="1">
          <mxGeometry relative="1" as="geometry">
            <mxPoint x="95" y="125" as="sourcePoint" />
          </mxGeometry>
        </mxCell>
        <mxCell id="FX6HBmnvnHPQ0UN5K0Ce-6" value="Controller" style="shape=umlLifeline;perimeter=lifelinePerimeter;container=1;dropTarget=0;collapsible=0;recursiveResize=0;outlineConnect=0;portConstraint=eastwest;newEdgeStyle={&quot;curved&quot;:0,&quot;rounded&quot;:0};participant=umlControl;labelPosition=center;verticalLabelPosition=top;align=center;verticalAlign=bottom;fontSize=13;" vertex="1" parent="1">
          <mxGeometry x="695" y="60" width="40" height="460" as="geometry" />
        </mxCell>
        <mxCell id="FX6HBmnvnHPQ0UN5K0Ce-7" value="" style="html=1;points=[[0,0,0,0,5],[0,1,0,0,-5],[1,0,0,0,5],[1,1,0,0,-5]];perimeter=orthogonalPerimeter;outlineConnect=0;targetShapes=umlLifeline;portConstraint=eastwest;newEdgeStyle={&quot;curved&quot;:0,&quot;rounded&quot;:0};" vertex="1" parent="FX6HBmnvnHPQ0UN5K0Ce-6">
          <mxGeometry x="15" y="70" width="10" height="360" as="geometry" />
        </mxCell>
        <mxCell id="FX6HBmnvnHPQ0UN5K0Ce-8" value="visualizzaNotificheClicked()" style="verticalAlign=bottom;startArrow=none;endArrow=block;startSize=8;curved=0;rounded=0;entryX=0;entryY=0;entryDx=0;entryDy=5;fontSize=13;startFill=0;" edge="1" target="FX6HBmnvnHPQ0UN5K0Ce-7" parent="1">
          <mxGeometry relative="1" as="geometry">
            <mxPoint x="300" y="135" as="sourcePoint" />
          </mxGeometry>
        </mxCell>
        <mxCell id="FX6HBmnvnHPQ0UN5K0Ce-9" value="notificaDao:NotificaDao" style="shape=umlLifeline;perimeter=lifelinePerimeter;container=1;dropTarget=0;collapsible=0;recursiveResize=0;outlineConnect=0;portConstraint=eastwest;newEdgeStyle={&quot;curved&quot;:0,&quot;rounded&quot;:0};fontSize=13;" vertex="1" parent="1">
          <mxGeometry x="985" y="60" width="140" height="460" as="geometry" />
        </mxCell>
        <mxCell id="FX6HBmnvnHPQ0UN5K0Ce-10" value="" style="html=1;points=[[0,0,0,0,5],[0,1,0,0,-5],[1,0,0,0,5],[1,1,0,0,-5]];perimeter=orthogonalPerimeter;outlineConnect=0;targetShapes=umlLifeline;portConstraint=eastwest;newEdgeStyle={&quot;curved&quot;:0,&quot;rounded&quot;:0};" vertex="1" parent="FX6HBmnvnHPQ0UN5K0Ce-9">
          <mxGeometry x="65" y="80" width="10" height="30" as="geometry" />
        </mxCell>
        <mxCell id="FX6HBmnvnHPQ0UN5K0Ce-11" value="getNotificheByUsername(utenteConnesso.getUsername())" style="verticalAlign=bottom;startArrow=none;endArrow=block;startSize=8;curved=0;rounded=0;entryX=0;entryY=0;entryDx=0;entryDy=5;startFill=0;fontSize=12;" edge="1" target="FX6HBmnvnHPQ0UN5K0Ce-10" parent="1" source="FX6HBmnvnHPQ0UN5K0Ce-7">
          <mxGeometry relative="1" as="geometry">
            <mxPoint x="725" y="150" as="sourcePoint" />
          </mxGeometry>
        </mxCell>
        <mxCell id="FX6HBmnvnHPQ0UN5K0Ce-12" value="listaNotifiche" style="verticalAlign=bottom;endArrow=open;dashed=1;endSize=8;curved=0;rounded=0;" edge="1" parent="1">
          <mxGeometry relative="1" as="geometry">
            <mxPoint x="1050" y="170" as="sourcePoint" />
            <mxPoint x="720" y="170" as="targetPoint" />
          </mxGeometry>
        </mxCell>
        <mxCell id="FX6HBmnvnHPQ0UN5K0Ce-13" value="ALT" style="shape=umlFrame;whiteSpace=wrap;html=1;pointerEvents=0;width=45;height=15;" vertex="1" parent="1">
          <mxGeometry x="650" y="188" width="850" height="282" as="geometry" />
        </mxCell>
        <mxCell id="FX6HBmnvnHPQ0UN5K0Ce-14" value="[listaNotifiche.isEmpty()]" style="text;align=center;verticalAlign=middle;resizable=0;points=[];autosize=1;strokeColor=none;fillColor=none;fontSize=13;" vertex="1" parent="1">
          <mxGeometry x="725" y="188" width="160" height="30" as="geometry" />
        </mxCell>
        <mxCell id="FX6HBmnvnHPQ0UN5K0Ce-15" value="" style="line;strokeWidth=1;fillColor=none;align=left;verticalAlign=middle;spacingTop=-1;spacingLeft=3;spacingRight=3;rotatable=0;labelPosition=right;points=[];portConstraint=eastwest;strokeColor=inherit;" vertex="1" parent="1">
          <mxGeometry x="650" y="281" width="850" height="8" as="geometry" />
        </mxCell>
        <mxCell id="FX6HBmnvnHPQ0UN5K0Ce-17" value="mostraMessaggioDiDialogo(&quot;Nessuna notifica da visualizzare!&quot;,&quot;Attenzione!&quot;)" style="verticalAlign=bottom;startArrow=none;endArrow=block;startSize=8;curved=0;rounded=0;entryX=1;entryY=0;entryDx=0;entryDy=5;startFill=0;entryPerimeter=0;fontSize=12;" edge="1" target="FX6HBmnvnHPQ0UN5K0Ce-16" parent="1" source="FX6HBmnvnHPQ0UN5K0Ce-7">
          <mxGeometry relative="1" as="geometry">
            <mxPoint x="360" y="223" as="sourcePoint" />
          </mxGeometry>
        </mxCell>
        <mxCell id="FX6HBmnvnHPQ0UN5K0Ce-18" value="[!listaNotifiche.isEmpty()]" style="text;align=center;verticalAlign=middle;resizable=0;points=[];autosize=1;strokeColor=none;fillColor=none;fontSize=13;" vertex="1" parent="1">
          <mxGeometry x="720" y="281" width="170" height="30" as="geometry" />
        </mxCell>
        <mxCell id="FX6HBmnvnHPQ0UN5K0Ce-20" value="VisualizzaNotificheDialog" style="shape=umlLifeline;perimeter=lifelinePerimeter;container=1;dropTarget=0;collapsible=0;recursiveResize=0;outlineConnect=0;portConstraint=eastwest;newEdgeStyle={&quot;curved&quot;:0,&quot;rounded&quot;:0};participant=umlBoundary;labelPosition=center;verticalLabelPosition=top;align=center;verticalAlign=bottom;fontSize=13;" vertex="1" parent="1">
          <mxGeometry x="1450" y="60" width="50" height="460" as="geometry" />
        </mxCell>
        <mxCell id="FX6HBmnvnHPQ0UN5K0Ce-21" value="" style="html=1;points=[[0,0,0,0,5],[0,1,0,0,-5],[1,0,0,0,5],[1,1,0,0,-5]];perimeter=orthogonalPerimeter;outlineConnect=0;targetShapes=umlLifeline;portConstraint=eastwest;newEdgeStyle={&quot;curved&quot;:0,&quot;rounded&quot;:0};" vertex="1" parent="FX6HBmnvnHPQ0UN5K0Ce-20">
          <mxGeometry x="20" y="270" width="10" height="120" as="geometry" />
        </mxCell>
        <mxCell id="FX6HBmnvnHPQ0UN5K0Ce-22" value="new VisualizzaNotificheDialog(controller,listaNotifiche)" style="verticalAlign=bottom;startArrow=none;endArrow=block;startSize=8;curved=0;rounded=0;entryX=0;entryY=0;entryDx=0;entryDy=5;startFill=0;fontSize=13;entryPerimeter=0;" edge="1" target="FX6HBmnvnHPQ0UN5K0Ce-21" parent="1" source="FX6HBmnvnHPQ0UN5K0Ce-7">
          <mxGeometry relative="1" as="geometry">
            <mxPoint x="720" y="328.5" as="sourcePoint" />
            <mxPoint x="1250" y="328.5" as="targetPoint" />
          </mxGeometry>
        </mxCell>
        <mxCell id="FX6HBmnvnHPQ0UN5K0Ce-23" value="" style="html=1;verticalAlign=bottom;endArrow=open;dashed=1;endSize=8;curved=0;rounded=0;" edge="1" parent="1" source="FX6HBmnvnHPQ0UN5K0Ce-21">
          <mxGeometry relative="1" as="geometry">
            <mxPoint x="1250" y="350" as="sourcePoint" />
            <mxPoint x="720" y="350" as="targetPoint" />
          </mxGeometry>
        </mxCell>
        <mxCell id="FX6HBmnvnHPQ0UN5K0Ce-24" value="" style="html=1;verticalAlign=bottom;endArrow=open;dashed=1;endSize=8;curved=0;rounded=0;exitX=1;exitY=1;exitDx=0;exitDy=-5;exitPerimeter=0;" edge="1" parent="1">
          <mxGeometry relative="1" as="geometry">
            <mxPoint x="300" y="240" as="sourcePoint" />
            <mxPoint x="710" y="240" as="targetPoint" />
          </mxGeometry>
        </mxCell>
        <mxCell id="FX6HBmnvnHPQ0UN5K0Ce-26" value="setLocationRelativeTo(homePage)" style="verticalAlign=bottom;endArrow=block;curved=0;rounded=0;fontSize=13;" edge="1" parent="1" target="FX6HBmnvnHPQ0UN5K0Ce-21">
          <mxGeometry width="80" relative="1" as="geometry">
            <mxPoint x="720" y="380" as="sourcePoint" />
            <mxPoint x="1250" y="380" as="targetPoint" />
          </mxGeometry>
        </mxCell>
        <mxCell id="FX6HBmnvnHPQ0UN5K0Ce-27" value="" style="html=1;verticalAlign=bottom;endArrow=open;dashed=1;endSize=8;curved=0;rounded=0;" edge="1" parent="1" source="FX6HBmnvnHPQ0UN5K0Ce-21">
          <mxGeometry relative="1" as="geometry">
            <mxPoint x="1250" y="400" as="sourcePoint" />
            <mxPoint x="720" y="400" as="targetPoint" />
          </mxGeometry>
        </mxCell>
        <mxCell id="FX6HBmnvnHPQ0UN5K0Ce-28" value="setVisible(true)" style="verticalAlign=bottom;endArrow=block;curved=0;rounded=0;fontSize=13;" edge="1" parent="1" target="FX6HBmnvnHPQ0UN5K0Ce-21">
          <mxGeometry width="80" relative="1" as="geometry">
            <mxPoint x="720" y="420" as="sourcePoint" />
            <mxPoint x="1250" y="420" as="targetPoint" />
          </mxGeometry>
        </mxCell>
        <mxCell id="FX6HBmnvnHPQ0UN5K0Ce-29" value="" style="html=1;verticalAlign=bottom;endArrow=open;dashed=1;endSize=8;curved=0;rounded=0;" edge="1" parent="1" source="FX6HBmnvnHPQ0UN5K0Ce-21">
          <mxGeometry relative="1" as="geometry">
            <mxPoint x="1250" y="440" as="sourcePoint" />
            <mxPoint x="720" y="440" as="targetPoint" />
          </mxGeometry>
        </mxCell>
        <mxCell id="FX6HBmnvnHPQ0UN5K0Ce-30" value="" style="html=1;verticalAlign=bottom;endArrow=open;dashed=1;endSize=8;curved=0;rounded=0;exitX=0;exitY=1;exitDx=0;exitDy=-5;exitPerimeter=0;" edge="1" parent="1" source="FX6HBmnvnHPQ0UN5K0Ce-7" target="FX6HBmnvnHPQ0UN5K0Ce-2">
          <mxGeometry relative="1" as="geometry">
            <mxPoint x="380" y="470" as="sourcePoint" />
            <mxPoint x="300" y="470" as="targetPoint" />
          </mxGeometry>
        </mxCell>
        <mxCell id="FX6HBmnvnHPQ0UN5K0Ce-31" value="" style="html=1;verticalAlign=bottom;endArrow=open;dashed=1;endSize=8;curved=0;rounded=0;" edge="1" parent="1">
          <mxGeometry relative="1" as="geometry">
            <mxPoint x="294.5" y="510" as="sourcePoint" />
            <mxPoint x="95" y="510" as="targetPoint" />
          </mxGeometry>
        </mxCell>
        <mxCell id="FX6HBmnvnHPQ0UN5K0Ce-32" value="listaNotifiche:LinkedList&lt;Notifica&gt;" style="shape=umlLifeline;perimeter=lifelinePerimeter;container=1;dropTarget=0;collapsible=0;recursiveResize=0;outlineConnect=0;portConstraint=eastwest;newEdgeStyle={&quot;curved&quot;:0,&quot;rounded&quot;:0};fontSize=13;" vertex="1" parent="1">
          <mxGeometry x="1190" y="60" width="200" height="460" as="geometry" />
        </mxCell>
        <mxCell id="FX6HBmnvnHPQ0UN5K0Ce-34" value="" style="endArrow=none;html=1;rounded=0;" edge="1" parent="1">
          <mxGeometry width="50" height="50" relative="1" as="geometry">
            <mxPoint x="90" y="520" as="sourcePoint" />
            <mxPoint x="95" y="520" as="targetPoint" />
            <Array as="points">
              <mxPoint x="90" y="520" />
            </Array>
          </mxGeometry>
        </mxCell>
        <mxCell id="FX6HBmnvnHPQ0UN5K0Ce-35" value="" style="endArrow=none;html=1;rounded=0;" edge="1" parent="1">
          <mxGeometry width="50" height="50" relative="1" as="geometry">
            <mxPoint x="85" y="520" as="sourcePoint" />
            <mxPoint x="90" y="520" as="targetPoint" />
            <Array as="points">
              <mxPoint x="85" y="520" />
            </Array>
          </mxGeometry>
        </mxCell>
        <mxCell id="FX6HBmnvnHPQ0UN5K0Ce-38" value="" style="html=1;verticalAlign=bottom;endArrow=none;dashed=1;endSize=8;curved=0;rounded=0;horizontal=0;endFill=0;" edge="1" parent="1" source="FX6HBmnvnHPQ0UN5K0Ce-1" target="FX6HBmnvnHPQ0UN5K0Ce-3">
          <mxGeometry relative="1" as="geometry">
            <mxPoint x="130" y="120" as="sourcePoint" />
            <mxPoint x="50" y="120" as="targetPoint" />
          </mxGeometry>
        </mxCell>
      </root>
    </mxGraphModel>
  </diagram>
</mxfile>
